<?xml version="1.0"?>
<svg xmlns="http://www.w3.org/2000/svg" viewBox="0 0 80 80">
    <path d="M 39.523438 7.0039062 C 21.729828 7.2597479 7.30927 21.633744 7.0058594 39.425781 C 6.6970982 57.473339 21.839504 72.941138 39.890625 73 C 41.084583 73.0041 42.264958 72.94484 43.425781 72.824219 C 45.689861 72.589576 47.719443 71.766418 49.421875 70.558594 C 51.93188 76.116784 57.513998 80 64 80 C 72.824711 80 80 72.824711 80 64 C 80 55.175289 72.824711 48 64 48 C 60.026493 48 56.395938 49.464107 53.595703 51.869141 C 54.119737 48.540519 57.303984 45.938059 61.060547 46.712891 L 61.757812 46.855469 C 67.816202 48.104425 73.42432 43.111144 72.859375 36.949219 L 72.859375 36.947266 C 72.798742 36.289084 72.720217 35.628248 72.619141 34.960938 C 70.371973 20.104665 58.086343 8.5208697 43.123047 7.1445312 C 41.909998 7.032926 40.709678 6.9868501 39.523438 7.0039062 z M 39.548828 9.0039062 C 40.665737 8.9882598 41.796627 9.031574 42.939453 9.1367188 C 56.982157 10.42838 68.531792 21.318038 70.640625 35.259766 C 70.735545 35.886455 70.811821 36.509088 70.869141 37.130859 C 71.316195 42.006934 66.957769 45.885528 62.160156 44.896484 L 61.464844 44.753906 L 61.462891 44.753906 C 55.767095 43.580465 50.892903 48.498135 51.599609 53.90625 C 49.352695 56.661761 48 60.174221 48 64 C 48 65.606112 48.243504 67.155615 48.685547 68.619141 C 47.169204 69.810499 45.324255 70.615776 43.21875 70.833984 C 42.128213 70.947299 41.019852 71.003877 39.896484 71 C 22.987606 70.944862 8.7146675 56.367379 9.0039062 39.460938 C 9.2892458 22.7286 22.795195 9.2386046 39.548828 9.0039062 z M 38 13 A 1 1 0 0 0 37 14 A 1 1 0 0 0 38 15 A 1 1 0 0 0 39 14 A 1 1 0 0 0 38 13 z M 42 13 A 1 1 0 0 0 41 14 A 1 1 0 0 0 42 15 A 1 1 0 0 0 43 14 A 1 1 0 0 0 42 13 z M 36 15 A 1 1 0 0 0 35 16 A 1 1 0 0 0 36 17 A 1 1 0 0 0 37 16 A 1 1 0 0 0 36 15 z M 40 15 A 1 1 0 0 0 39 16 A 1 1 0 0 0 40 17 A 1 1 0 0 0 41 16 A 1 1 0 0 0 40 15 z M 44 15 A 1 1 0 0 0 43 16 A 1 1 0 0 0 44 17 A 1 1 0 0 0 45 16 A 1 1 0 0 0 44 15 z M 38 17 A 1 1 0 0 0 37 18 A 1 1 0 0 0 38 19 A 1 1 0 0 0 39 18 A 1 1 0 0 0 38 17 z M 42 17 A 1 1 0 0 0 41 18 A 1 1 0 0 0 42 19 A 1 1 0 0 0 43 18 A 1 1 0 0 0 42 17 z M 23 19 A 1 1 0 0 0 22 20 A 1 1 0 0 0 23 21 A 1 1 0 0 0 24 20 A 1 1 0 0 0 23 19 z M 27 19 A 1 1 0 0 0 26 20 A 1 1 0 0 0 27 21 A 1 1 0 0 0 28 20 A 1 1 0 0 0 27 19 z M 36 19 A 1 1 0 0 0 35 20 A 1 1 0 0 0 36 21 A 1 1 0 0 0 37 20 A 1 1 0 0 0 36 19 z M 40 19 A 1 1 0 0 0 39 20 A 1 1 0 0 0 40 21 A 1 1 0 0 0 41 20 A 1 1 0 0 0 40 19 z M 44 19 A 1 1 0 0 0 43 20 A 1 1 0 0 0 44 21 A 1 1 0 0 0 45 20 A 1 1 0 0 0 44 19 z M 54 20 A 1 1 0 0 0 53 21 A 1 1 0 0 0 54 22 A 1 1 0 0 0 55 21 A 1 1 0 0 0 54 20 z M 58 20 A 1 1 0 0 0 57 21 A 1 1 0 0 0 58 22 A 1 1 0 0 0 59 21 A 1 1 0 0 0 58 20 z M 21 21 A 1 1 0 0 0 20 22 A 1 1 0 0 0 21 23 A 1 1 0 0 0 22 22 A 1 1 0 0 0 21 21 z M 25 21 A 1 1 0 0 0 24 22 A 1 1 0 0 0 25 23 A 1 1 0 0 0 26 22 A 1 1 0 0 0 25 21 z M 29 21 A 1 1 0 0 0 28 22 A 1 1 0 0 0 29 23 A 1 1 0 0 0 30 22 A 1 1 0 0 0 29 21 z M 38 21 A 1 1 0 0 0 37 22 A 1 1 0 0 0 38 23 A 1 1 0 0 0 39 22 A 1 1 0 0 0 38 21 z M 42 21 A 1 1 0 0 0 41 22 A 1 1 0 0 0 42 23 A 1 1 0 0 0 43 22 A 1 1 0 0 0 42 21 z M 52 22 A 1 1 0 0 0 51 23 A 1 1 0 0 0 52 24 A 1 1 0 0 0 53 23 A 1 1 0 0 0 52 22 z M 56 22 A 1 1 0 0 0 55 23 A 1 1 0 0 0 56 24 A 1 1 0 0 0 57 23 A 1 1 0 0 0 56 22 z M 60 22 A 1 1 0 0 0 59 23 A 1 1 0 0 0 60 24 A 1 1 0 0 0 61 23 A 1 1 0 0 0 60 22 z M 23 23 A 1 1 0 0 0 22 24 A 1 1 0 0 0 23 25 A 1 1 0 0 0 24 24 A 1 1 0 0 0 23 23 z M 27 23 A 1 1 0 0 0 26 24 A 1 1 0 0 0 27 25 A 1 1 0 0 0 28 24 A 1 1 0 0 0 27 23 z M 54 24 A 1 1 0 0 0 53 25 A 1 1 0 0 0 54 26 A 1 1 0 0 0 55 25 A 1 1 0 0 0 54 24 z M 58 24 A 1 1 0 0 0 57 25 A 1 1 0 0 0 58 26 A 1 1 0 0 0 59 25 A 1 1 0 0 0 58 24 z M 21 25 A 1 1 0 0 0 20 26 A 1 1 0 0 0 21 27 A 1 1 0 0 0 22 26 A 1 1 0 0 0 21 25 z M 25 25 A 1 1 0 0 0 24 26 A 1 1 0 0 0 25 27 A 1 1 0 0 0 26 26 A 1 1 0 0 0 25 25 z M 29 25 A 1 1 0 0 0 28 26 A 1 1 0 0 0 29 27 A 1 1 0 0 0 30 26 A 1 1 0 0 0 29 25 z M 52 26 A 1 1 0 0 0 51 27 A 1 1 0 0 0 52 28 A 1 1 0 0 0 53 27 A 1 1 0 0 0 52 26 z M 56 26 A 1 1 0 0 0 55 27 A 1 1 0 0 0 56 28 A 1 1 0 0 0 57 27 A 1 1 0 0 0 56 26 z M 60 26 A 1 1 0 0 0 59 27 A 1 1 0 0 0 60 28 A 1 1 0 0 0 61 27 A 1 1 0 0 0 60 26 z M 23 27 A 1 1 0 0 0 22 28 A 1 1 0 0 0 23 29 A 1 1 0 0 0 24 28 A 1 1 0 0 0 23 27 z M 27 27 A 1 1 0 0 0 26 28 A 1 1 0 0 0 27 29 A 1 1 0 0 0 28 28 A 1 1 0 0 0 27 27 z M 54 28 A 1 1 0 0 0 53 29 A 1 1 0 0 0 54 30 A 1 1 0 0 0 55 29 A 1 1 0 0 0 54 28 z M 58 28 A 1 1 0 0 0 57 29 A 1 1 0 0 0 58 30 A 1 1 0 0 0 59 29 A 1 1 0 0 0 58 28 z M 17 34 A 1 1 0 0 0 16 35 A 1 1 0 0 0 17 36 A 1 1 0 0 0 18 35 A 1 1 0 0 0 17 34 z M 21 34 A 1 1 0 0 0 20 35 A 1 1 0 0 0 21 36 A 1 1 0 0 0 22 35 A 1 1 0 0 0 21 34 z M 15 36 A 1 1 0 0 0 14 37 A 1 1 0 0 0 15 38 A 1 1 0 0 0 16 37 A 1 1 0 0 0 15 36 z M 19 36 A 1 1 0 0 0 18 37 A 1 1 0 0 0 19 38 A 1 1 0 0 0 20 37 A 1 1 0 0 0 19 36 z M 23 36 A 1 1 0 0 0 22 37 A 1 1 0 0 0 23 38 A 1 1 0 0 0 24 37 A 1 1 0 0 0 23 36 z M 17 38 A 1 1 0 0 0 16 39 A 1 1 0 0 0 17 40 A 1 1 0 0 0 18 39 A 1 1 0 0 0 17 38 z M 21 38 A 1 1 0 0 0 20 39 A 1 1 0 0 0 21 40 A 1 1 0 0 0 22 39 A 1 1 0 0 0 21 38 z M 15 40 A 1 1 0 0 0 14 41 A 1 1 0 0 0 15 42 A 1 1 0 0 0 16 41 A 1 1 0 0 0 15 40 z M 19 40 A 1 1 0 0 0 18 41 A 1 1 0 0 0 19 42 A 1 1 0 0 0 20 41 A 1 1 0 0 0 19 40 z M 23 40 A 1 1 0 0 0 22 41 A 1 1 0 0 0 23 42 A 1 1 0 0 0 24 41 A 1 1 0 0 0 23 40 z M 17 42 A 1 1 0 0 0 16 43 A 1 1 0 0 0 17 44 A 1 1 0 0 0 18 43 A 1 1 0 0 0 17 42 z M 21 42 A 1 1 0 0 0 20 43 A 1 1 0 0 0 21 44 A 1 1 0 0 0 22 43 A 1 1 0 0 0 21 42 z M 23 50 A 1 1 0 0 0 22 51 A 1 1 0 0 0 23 52 A 1 1 0 0 0 24 51 A 1 1 0 0 0 23 50 z M 27 50 A 1 1 0 0 0 26 51 A 1 1 0 0 0 27 52 A 1 1 0 0 0 28 51 A 1 1 0 0 0 27 50 z M 64 50 C 71.743831 50 78 56.256169 78 64 C 78 71.743831 71.743831 78 64 78 C 56.256169 78 50 71.743831 50 64 C 50 56.256169 56.256169 50 64 50 z M 21 52 A 1 1 0 0 0 20 53 A 1 1 0 0 0 21 54 A 1 1 0 0 0 22 53 A 1 1 0 0 0 21 52 z M 25 52 A 1 1 0 0 0 24 53 A 1 1 0 0 0 25 54 A 1 1 0 0 0 26 53 A 1 1 0 0 0 25 52 z M 29 52 A 1 1 0 0 0 28 53 A 1 1 0 0 0 29 54 A 1 1 0 0 0 30 53 A 1 1 0 0 0 29 52 z M 23 54 A 1 1 0 0 0 22 55 A 1 1 0 0 0 23 56 A 1 1 0 0 0 24 55 A 1 1 0 0 0 23 54 z M 27 54 A 1 1 0 0 0 26 55 A 1 1 0 0 0 27 56 A 1 1 0 0 0 28 55 A 1 1 0 0 0 27 54 z M 40 55 C 37.250421 55 35 57.250421 35 60 C 35 62.749579 37.250421 65 40 65 C 42.749579 65 45 62.749579 45 60 C 45 57.250421 42.749579 55 40 55 z M 63.390625 55.820312 L 63.390625 57.126953 C 60.722625 57.353953 59.113281 58.820734 59.113281 61.052734 C 59.113281 62.944734 60.297422 64.232484 62.482422 64.771484 L 63.390625 64.988281 L 63.390625 69.019531 C 62.075625 68.877531 61.213906 68.120547 61.128906 67.060547 L 58.820312 67.060547 C 58.829313 69.292547 60.571625 70.786031 63.390625 70.957031 L 63.390625 72.177734 L 64.697266 72.177734 L 64.697266 70.947266 C 67.544266 70.710266 69.181641 69.244438 69.181641 66.898438 C 69.181641 64.902438 68.035813 63.683 65.632812 63.125 L 64.695312 62.925781 L 64.695312 59.095703 C 65.830313 59.246703 66.625297 60.021094 66.654297 60.996094 L 68.914062 60.996094 C 68.867063 58.867094 67.221312 57.353953 64.695312 57.126953 L 64.695312 55.820312 L 63.390625 55.820312 z M 21 56 A 1 1 0 0 0 20 57 A 1 1 0 0 0 21 58 A 1 1 0 0 0 22 57 A 1 1 0 0 0 21 56 z M 25 56 A 1 1 0 0 0 24 57 A 1 1 0 0 0 25 58 A 1 1 0 0 0 26 57 A 1 1 0 0 0 25 56 z M 29 56 A 1 1 0 0 0 28 57 A 1 1 0 0 0 29 58 A 1 1 0 0 0 30 57 A 1 1 0 0 0 29 56 z M 40 57 C 41.668699 57 43 58.331301 43 60 C 43 61.668699 41.668699 63 40 63 C 38.331301 63 37 61.668699 37 60 C 37 58.331301 38.331301 57 40 57 z M 23 58 A 1 1 0 0 0 22 59 A 1 1 0 0 0 23 60 A 1 1 0 0 0 24 59 A 1 1 0 0 0 23 58 z M 27 58 A 1 1 0 0 0 26 59 A 1 1 0 0 0 27 60 A 1 1 0 0 0 28 59 A 1 1 0 0 0 27 58 z M 63.390625 59.085938 L 63.390625 62.650391 C 62.122625 62.386391 61.450172 61.763469 61.451172 60.855469 C 61.451172 59.889469 62.265625 59.151938 63.390625 59.085938 z M 64.695312 65.234375 C 66.190313 65.527375 66.871094 66.132531 66.871094 67.144531 C 66.871094 68.261531 66.076313 68.952109 64.695312 69.037109 L 64.695312 65.234375 z"/>
</svg>
